# xmcd
#
# Track frame offsets: 
#        150
#        14115
#        27242
#        42573
#        57383
#        70835
#        85025
#        99824
#        113212
#        130159
#        146129
#        159691
#        176654
#        191934
#        207223
#        220650
#        235348
#        251298
#        265177
#        278300
#        291743
#
# Disc length: 4102 seconds
#
# Revision: 0
# Processed by: cddbd v1.5.2PL0 Copyright (c) Steve Scherf et al.
# Submitted via: ExactAudioCopy v1.1
#
DISCID=3d100415
DTITLE=Various Artist - Het Beste Uit MENT Top 600 - CD 4
DYEAR=2017
DGENRE=Pop-Folk
TTITLE0=Niels Destadsbader - Hey Pa
TTITLE1=Jettie Pallettie - Hopeloos
TTITLE2=K3 - Pina Colada
TTITLE3=Frans Bauer - Heb Je Even Voor Mij
TTITLE4=Sugarfree - Macarena
TTITLE5=De Stoempers - Tsjakkiediekkie Boem Boem
TTITLE6=Laura Lynn - Hemelsblauwe Ogen
TTITLE7=Belle Perez - Enamorada
TTITLE8=Nicole and Hugo - Alles Komt Terug
TTITLE9=Willy Sommers - Zeg Dus Niet Hallo
TTITLE10=Gene Thomas - Stralen
TTITLE11=Micha Marah - Liefdesliedjes
TTITLE12=André Hazes - Steeds Weer
TTITLE13=Lisa Del Bo - Tekens Van Hoop
TTITLE14=Luc Steeno - Onder De Zon
TTITLE15=Marjan Berger - Gisteren Herleeft
TTITLE16=Udo - Zomer In Je Hart
TTITLE17=Wim Leys - Vannacht Zijn We Samen
TTITLE18=Sasha and Davy - Dromen Van Elkaar
TTITLE19=Will Tura - Blijf Bij Mij
TTITLE20=Yasmine - Kwart Voor Tijd
EXTD=
EXTT0=
EXTT1=
EXTT2=
EXTT3=
EXTT4=
EXTT5=
EXTT6=
EXTT7=
EXTT8=
EXTT9=
EXTT10=
EXTT11=
EXTT12=
EXTT13=
EXTT14=
EXTT15=
EXTT16=
EXTT17=
EXTT18=
EXTT19=
EXTT20=
PLAYORDER=
